<svg xmlns="http://www.w3.org/2000/svg" xmlns:xlink="http://www.w3.org/1999/xlink" width="100" zoomAndPan="magnify" viewBox="0 0 75 74.999997" height="100" preserveAspectRatio="xMidYMid meet" version="1.0"><defs><clipPath id="8e21863721"><path d="M 7.5 7.5 L 67.5 7.5 L 67.5 67.5 L 7.5 67.5 Z M 7.5 7.5 " clip-rule="nonzero"/></clipPath><clipPath id="93dc4c97bf"><path d="M 18.75 7.5 L 56.25 7.5 C 62.464844 7.5 67.5 12.535156 67.5 18.75 L 67.5 56.25 C 67.5 62.464844 62.464844 67.5 56.25 67.5 L 18.75 67.5 C 12.535156 67.5 7.5 62.464844 7.5 56.25 L 7.5 18.75 C 7.5 12.535156 12.535156 7.5 18.75 7.5 Z M 18.75 7.5 " clip-rule="nonzero"/></clipPath><clipPath id="2da89fbbeb"><path d="M 0.5 0.5 L 60.5 0.5 L 60.5 60.5 L 0.5 60.5 Z M 0.5 0.5 " clip-rule="nonzero"/></clipPath><clipPath id="3af9e40341"><path d="M 11.75 0.5 L 49.25 0.5 C 55.464844 0.5 60.5 5.535156 60.5 11.75 L 60.5 49.25 C 60.5 55.464844 55.464844 60.5 49.25 60.5 L 11.75 60.5 C 5.535156 60.5 0.5 55.464844 0.5 49.25 L 0.5 11.75 C 0.5 5.535156 5.535156 0.5 11.75 0.5 Z M 11.75 0.5 " clip-rule="nonzero"/></clipPath><clipPath id="bb9775225d"><rect x="0" width="61" y="0" height="61"/></clipPath><clipPath id="f6b649971c"><path d="M 19.9375 14.558594 L 55.1875 14.558594 L 55.1875 60.308594 L 19.9375 60.308594 Z M 19.9375 14.558594 " clip-rule="nonzero"/></clipPath></defs><g clip-path="url(#8e21863721)"><g clip-path="url(#93dc4c97bf)"><g transform="matrix(1, 0, 0, 1, 7, 7)"><g clip-path="url(#bb9775225d)"><g clip-path="url(#2da89fbbeb)"><g clip-path="url(#3af9e40341)"><path fill="#000000" d="M 0.5 0.5 L 60.5 0.5 L 60.5 60.5 L 0.5 60.5 Z M 0.5 0.5 " fill-opacity="1" fill-rule="nonzero"/></g></g></g></g></g></g><g clip-path="url(#f6b649971c)"><path fill="#ffffff" d="M 55.050781 25.332031 L 55.050781 38.835938 L 44.730469 38.835938 L 44.730469 24.875 L 19.949219 24.875 L 19.949219 14.558594 L 44.421875 14.558594 C 46.324219 16.507812 51.273438 21.523438 55.050781 25.332031 Z M 19.949219 50.128906 L 30.269531 60.4375 L 30.269531 49.15625 L 44.730469 49.15625 L 44.730469 38.835938 L 19.949219 38.835938 Z M 19.949219 50.128906 " fill-opacity="1" fill-rule="nonzero"/></g></svg>